<?xml version="1.0" encoding="UTF-8"?><svg id="a" xmlns="http://www.w3.org/2000/svg" viewBox="0 0 520.16 520.39"><defs><style>.b{opacity:.83;}</style></defs><path d="M274.37,375.17l9.02,6.84c-2.37,5.11-4.65,9.57-6.84,13.4s-4.83,8.48-7.93,13.95c-3.1,5.47-5.47,9.57-7.11,12.3-13.67,23.88-26.52,35.82-38.55,35.82-5.11,0-9.48-2.01-13.12-6.02-3.65-4.01-5.47-9.48-5.47-16.41,0-9.84,3.51-23.33,10.53-40.47,7.02-17.13,17.86-38.23,32.54-63.3,14.67-25.06,33.13-53.46,55.37-85.18,22.24-31.72,47.3-65.17,75.2-100.35-16.04-2.37-35.09-3.55-57.15-3.55-25.34,0-53.55,2.83-84.63,8.48-31.08,5.65-58.15,12.17-81.21,19.55-23.06,7.38-34.59,12.81-34.59,16.27,0,1.28,.45,2.14,1.37,2.6,.91,.46,2.41,.82,4.51,1.09,2.09,.27,4.79,.59,8.07,.96,21.33,2.92,31.99,6.2,31.99,9.84,0,1.82-4.65,2.69-13.95,2.6-9.3-.09-20.51-.14-33.63-.14-10.39,0-17.91-.41-22.56-1.23s-7.75-2.37-9.3-4.65c-1.55-2.28-2.32-5.79-2.32-10.53,0-3.1,.91-9.84,2.73-20.23,3.46-19.32,8.79-34.82,16-46.48,7.2-11.66,18.23-21.19,33.09-28.57,14.86-7.38,35.32-13.26,61.39-17.64,43.75-7.47,79.93-11.21,108.55-11.21,21.14,0,37.82,.87,50.04,2.6,12.21,1.73,21.19,4.24,26.93,7.52,5.74,3.28,9.39,6.52,10.94,9.71,1.55,3.19,3.6,8.71,6.15,16.54l8.48,25.16c.55,1.64,1,2.96,1.37,3.96,.36,1,.68,2.05,.96,3.14s.41,2.1,.41,3.01c0,7.11-1.6,13.49-4.79,19.14-3.19,5.65-9.02,14.13-17.5,25.43-8.48,11.3-14.72,20.14-18.73,26.52-47.03,76.38-79.12,132.89-96.25,169.53Z"/><g class="b"><path d="M388.2,145.39c5,0,21.84,2.65,18.65,8.3-3.19,5.65-9.02,14.13-17.5,25.43-8.48,11.3-14.72,20.14-18.73,26.52-47.03,76.38-79.12,132.89-96.25,169.53l9.02,6.84c-2.37,5.11-4.65,9.57-6.84,13.4s-4.83,8.48-7.93,13.95c-3.1,5.47-5.47,9.57-7.11,12.3-13.67,23.88-26.52,35.82-38.55,35.82-5.11,0-9.48-2.01-13.12-6.02-3.65-4.01-5.47-9.48-5.47-16.41,0-9.84,3.51-23.33,10.53-40.47,7.02-17.13,17.86-38.23,32.54-63.3,14.67-25.06,33.13-53.46,55.37-85.18,22.24-31.72,47.3-65.17,75.2-100.35"/></g><g><path d="M162.76,291.04c-12.1,9.41-35.62,20.83-59.13,32.26,12.1,6.72,22.85,13.44,32.26,21.5,16.13,14.78,20.83,30.91,18.82,45.02-2.69,14.11-11.42,15.46-23.52,7.39-23.52-16.8-57.79-34.27-78.62-45.02-13.44-7.39-20.16-19.49-22.85-37.63-1.34-11.42,1.34-17.47,16.13-22.85,32.93-11.42,95.42-39.65,122.3-56.45,13.44-8.74,21.5-4.03,21.5,9.41,0,12.1-8.74,32.93-26.88,46.37Z"/><path d="M357.63,342.79c14.78-10.75,32.93-18.82,54.43-26.88-13.44-8.06-26.21-16.8-33.6-23.52-15.46-13.44-20.83-34.94-19.49-45.7,2.02-15.46,11.42-16.13,23.52-8.06,29.57,20.16,65.18,40.32,95.42,53.09,13.44,6.05,15.46,13.44,10.08,26.21-10.08,19.49-16.8,28.9-31.58,34.94-46.37,17.47-81.98,30.91-106.18,44.35-14.11,7.39-18.82,5.38-20.16-10.08-.67-12.1,10.75-31.58,27.55-44.35Z"/></g></svg>