<?xml version="1.0" encoding="utf-8"?>
<!-- Generator: Adobe Illustrator 26.4.1, SVG Export Plug-In . SVG Version: 6.00 Build 0)  -->
<svg version="1.1" id="a" xmlns="http://www.w3.org/2000/svg" xmlns:xlink="http://www.w3.org/1999/xlink" x="0px" y="0px"
	 viewBox="0 0 520.2 520.4" style="enable-background:new 0 0 520.2 520.4;" xml:space="preserve">
<style type="text/css">
	.st0{fill:#11DBF7;}
</style>
<g>
	<path class="st0" d="M274.4,375.2l9,6.8c-2.4,5.1-4.6,9.6-6.8,13.4s-4.8,8.5-7.9,14s-5.5,9.6-7.1,12.3
		c-13.7,23.9-26.5,35.8-38.5,35.8c-5.1,0-9.5-2-13.1-6c-3.6-4-5.5-9.5-5.5-16.4c0-9.8,3.5-23.3,10.5-40.5
		c7-17.1,17.9-38.2,32.5-63.3c14.7-25.1,33.1-53.5,55.4-85.2s47.3-65.2,75.2-100.4c-16-2.4-35.1-3.6-57.1-3.6
		c-25.3,0-53.5,2.8-84.6,8.5s-58.1,12.2-81.2,19.6s-34.6,12.8-34.6,16.3c0,1.3,0.4,2.1,1.4,2.6c0.9,0.5,2.4,0.8,4.5,1.1
		c2.1,0.3,4.8,0.6,8.1,1c21.3,2.9,32,6.2,32,9.8c0,1.8-4.6,2.7-13.9,2.6s-20.5-0.1-33.6-0.1c-10.4,0-17.9-0.4-22.6-1.2
		s-7.8-2.4-9.3-4.6s-2.3-5.8-2.3-10.5c0-3.1,0.9-9.8,2.7-20.2c3.5-19.3,8.8-34.8,16-46.5c7.2-11.7,18.2-21.2,33.1-28.6
		s35.3-13.3,61.4-17.6c43.8-7.5,79.9-11.2,108.6-11.2c21.1,0,37.8,0.9,50,2.6c12.2,1.7,21.2,4.2,26.9,7.5s9.4,6.5,10.9,9.7
		s3.6,8.7,6.1,16.5l8.5,25.2c0.5,1.6,1,3,1.4,4c0.4,1,0.7,2.1,1,3.1s0.4,2.1,0.4,3c0,7.1-1.6,13.5-4.8,19.1s-9,14.1-17.5,25.4
		c-8.5,11.3-14.7,20.1-18.7,26.5C323.6,282,291.5,338.5,274.4,375.2L274.4,375.2z"/>
	<g>
		<path class="st0" d="M162.8,291c-12.1,9.4-35.6,20.8-59.1,32.3c12.1,6.7,22.8,13.4,32.3,21.5c16.1,14.8,20.8,30.9,18.8,45
			c-2.7,14.1-11.4,15.5-23.5,7.4c-23.5-16.8-57.8-34.3-78.6-45c-13.4-7.4-20.2-19.5-22.9-37.6c-1.3-11.4,1.3-17.5,16.1-22.9
			c32.9-11.4,95.4-39.6,122.3-56.4c13.4-8.7,21.5-4,21.5,9.4C189.6,256.8,180.9,277.6,162.8,291L162.8,291z"/>
		<path class="st0" d="M357.6,342.8c14.8-10.8,32.9-18.8,54.4-26.9c-13.4-8.1-26.2-16.8-33.6-23.5c-15.5-13.4-20.8-34.9-19.5-45.7
			c2-15.5,11.4-16.1,23.5-8.1c29.6,20.2,65.2,40.3,95.4,53.1c13.4,6,15.5,13.4,10.1,26.2c-10.1,19.5-16.8,28.9-31.6,34.9
			c-46.4,17.5-82,30.9-106.2,44.4c-14.1,7.4-18.8,5.4-20.2-10.1C329.4,375,340.8,355.6,357.6,342.8L357.6,342.8z"/>
	</g>
</g>
</svg>
